<svg xmlns="http://www.w3.org/2000/svg" xmlns:xlink="http://www.w3.org/1999/xlink" width="500" zoomAndPan="magnify" viewBox="0 0 375 187.499995" height="250" preserveAspectRatio="xMidYMid meet" version="1.0"><defs><g/></defs><g fill="#000000" fill-opacity="1"><g transform="translate(-0.872919, 142.25781)"><g><path d="M 28.875 0 L 11.671875 0 L 11.671875 -89.796875 L 32 -89.796875 L 68.0625 -31.9375 L 69.65625 -32.1875 L 69.65625 -89.796875 L 86.734375 -89.796875 L 86.734375 0 L 68.546875 0 L 30.40625 -61.796875 L 28.875 -61.546875 Z M 28.875 0 "/></g></g></g><g fill="#000000" fill-opacity="1"><g transform="translate(97.578332, 142.25781)"><g><path d="M 29.421875 -39.4375 L 29.421875 -14.859375 L 72.296875 -14.859375 L 72.296875 0 L 11.671875 0 L 11.671875 -89.796875 L 71.3125 -89.796875 L 71.3125 -74.9375 L 29.421875 -74.9375 L 29.421875 -53.9375 L 66.03125 -53.9375 L 66.03125 -39.4375 Z M 29.421875 -39.4375 "/></g></g></g><g fill="#000000" fill-opacity="1"><g transform="translate(174.779345, 142.25781)"><g><path d="M 42.875 0 L 23.03125 0 L 2.453125 -89.796875 L 20.140625 -89.796875 L 33.71875 -26.65625 L 35.25 -26.65625 L 51.34375 -89.796875 L 66.515625 -89.796875 L 82.921875 -26.65625 L 84.453125 -26.65625 L 98.09375 -89.796875 L 115.171875 -89.796875 L 94.65625 0 L 74.75 0 L 59.03125 -57.921875 L 57.734375 -57.921875 Z M 42.875 0 "/></g></g></g><g fill="#000000" fill-opacity="1"><g transform="translate(292.822624, 142.25781)"><g><path d="M 39.796875 1.296875 C 33.578125 1.296875 28.039062 0.53125 23.1875 -1 C 18.332031 -2.539062 14.285156 -4.5625 11.046875 -7.0625 C 7.816406 -9.5625 5.34375 -12.304688 3.625 -15.296875 L 13.390625 -27.21875 L 14.921875 -27.21875 C 17.628906 -23.195312 21.0625 -20 25.21875 -17.625 C 29.375 -15.25 34.234375 -14.0625 39.796875 -14.0625 C 44.546875 -14.0625 48.128906 -15.0625 50.546875 -17.0625 C 52.960938 -19.070312 54.171875 -21.84375 54.171875 -25.375 C 54.171875 -27.5 53.78125 -29.273438 53 -30.703125 C 52.226562 -32.140625 50.941406 -33.367188 49.140625 -34.390625 C 47.335938 -35.421875 44.898438 -36.300781 41.828125 -37.03125 L 30.28125 -39.6875 C 22.21875 -41.519531 16.207031 -44.578125 12.25 -48.859375 C 8.300781 -53.140625 6.328125 -58.703125 6.328125 -65.546875 C 6.328125 -70.617188 7.59375 -75.078125 10.125 -78.921875 C 12.664062 -82.773438 16.363281 -85.765625 21.21875 -87.890625 C 26.070312 -90.023438 31.878906 -91.09375 38.640625 -91.09375 C 45.554688 -91.09375 51.476562 -90.179688 56.40625 -88.359375 C 61.34375 -86.535156 65.515625 -83.738281 68.921875 -79.96875 L 60.140625 -67.9375 L 58.59375 -67.9375 C 56.0625 -70.59375 53.15625 -72.585938 49.875 -73.921875 C 46.601562 -75.253906 42.859375 -75.921875 38.640625 -75.921875 C 33.765625 -75.921875 30.054688 -75.0625 27.515625 -73.34375 C 24.972656 -71.625 23.703125 -69.25 23.703125 -66.21875 C 23.703125 -63.394531 24.59375 -61.140625 26.375 -59.453125 C 28.15625 -57.773438 31.238281 -56.46875 35.625 -55.53125 L 47.421875 -53.078125 C 56.140625 -51.234375 62.460938 -48.109375 66.390625 -43.703125 C 70.328125 -39.296875 72.296875 -33.550781 72.296875 -26.46875 C 72.296875 -20.863281 71.085938 -15.984375 68.671875 -11.828125 C 66.253906 -7.671875 62.609375 -4.441406 57.734375 -2.140625 C 52.859375 0.148438 46.878906 1.296875 39.796875 1.296875 Z M 39.796875 1.296875 "/></g></g></g></svg>